<?xml version="1.0" encoding="iso-8859-1"?>
<!-- Generator: Adobe Illustrator 16.0.0, SVG Export Plug-In . SVG Version: 6.00 Build 0)  -->
<!DOCTYPE svg PUBLIC "-//W3C//DTD SVG 1.1//EN" "http://www.w3.org/Graphics/SVG/1.1/DTD/svg11.dtd">
<svg version="1.1" id="Capa_1" xmlns="http://www.w3.org/2000/svg" xmlns:xlink="http://www.w3.org/1999/xlink" x="0px" y="0px"
	 width="92.895px" height="92.895px" viewBox="0 0 92.895 92.895" style="enable-background:new 0 0 92.895 92.895;"
	 xml:space="preserve">
<g>
	<path d="M90.325,0H2.569C1.15,0,0,1.15,0,2.568v87.756c0,1.42,1.15,2.57,2.569,2.57h87.755c1.42,0,2.569-1.15,2.569-2.57V2.568
		C92.894,1.15,91.745,0,90.325,0z M46.447,10.158c3.482,0,6.306,2.82,6.306,6.303c0,3.484-2.823,6.309-6.306,6.309
		s-6.306-2.824-6.306-6.309C40.141,12.978,42.965,10.158,46.447,10.158z M17.343,82.736c-3.481,0-6.305-2.822-6.305-6.306
		s2.823-6.307,6.305-6.307s6.306,2.821,6.306,6.307C23.648,79.914,20.824,82.736,17.343,82.736z M17.343,52.049
		c-3.481,0-6.305-2.822-6.305-6.307s2.823-6.303,6.305-6.303s6.306,2.818,6.306,6.303S20.824,52.049,17.343,52.049z M46.447,82.736
		c-3.482,0-6.306-2.822-6.306-6.306s2.823-6.307,6.306-6.307s6.306,2.821,6.306,6.307C52.753,79.914,49.929,82.736,46.447,82.736z
		 M79.522,79.814c-0.75,0.733-1.725,1.1-2.697,1.1c-0.998,0-1.998-0.387-2.752-1.158L13.673,18.072
		c-1.489-1.52-1.464-3.961,0.058-5.449c1.521-1.486,3.959-1.465,5.449,0.059l60.398,61.684
		C81.067,75.884,81.042,78.324,79.522,79.814z M75.551,52.049c-3.48,0-6.307-2.822-6.307-6.307s2.824-6.303,6.307-6.303
		s6.305,2.818,6.305,6.303S79.034,52.049,75.551,52.049z M75.551,22.769c-3.48,0-6.307-2.824-6.307-6.309
		c0-3.482,2.824-6.303,6.307-6.303s6.305,2.82,6.305,6.303C81.856,19.945,79.034,22.769,75.551,22.769z"/>
</g>
<g>
</g>
<g>
</g>
<g>
</g>
<g>
</g>
<g>
</g>
<g>
</g>
<g>
</g>
<g>
</g>
<g>
</g>
<g>
</g>
<g>
</g>
<g>
</g>
<g>
</g>
<g>
</g>
<g>
</g>
</svg>
